<svg xmlns="http://www.w3.org/2000/svg" viewBox="0 0 96 120" width="32" height="40">
  <g fill="#281A7C">
    <path d="M33.717,43.216c-0.631-0.632-1.134-1.136-1.481-1.484l-6.167,6.167l10.43,10.429l10.43,10.429l6.162-6.161C51.685,61.205,47.178,56.702,33.717,43.216z"/>
    <polygon points="35.438,59.388 24.478,48.429 23.396,47.348 18.244,52.501 18.623,52.88 19.325,53.583 41.245,75.502 41.246,75.502 41.605,75.863 41.947,76.205 41.946,76.205 42.323,76.583 47.479,71.428 46.928,70.877"/>
    <path d="M21.95,72.875c2.886,2.886,6.727,4.475,10.814,4.475c2.313,0,4.608-0.521,6.694-1.512L18.99,55.369C16.209,61.22,17.363,68.289,21.95,72.875z"/>
    <path d="M63.241,10.591C60.4,7.751,57.236,6.25,54.09,6.25c-4.471,0-8.266,3.024-10.41,8.296l-3.523,8.644c-1.618,3.979-4.079,6.693-6.058,8.874c-3.184,3.51-4.354,5.055-1.333,8.076l0.01,0.01l0.13,0.129l21.753,21.753c1.184,1.002,2.245,1.494,3.23,1.494c1.667,0,3.256-1.397,5.268-3.167c2.112-1.859,4.742-4.173,8.481-5.692l8.643-3.521c4.484-1.824,7.364-4.856,8.109-8.539c0.745-3.683-0.73-7.597-4.154-11.021L63.241,10.591z"/>
    <path d="M12.028,76.104c0.298-0.298,0.461-0.692,0.461-1.112s-0.163-0.815-0.461-1.113s-0.693-0.461-1.114-0.461s-0.816,0.163-1.114,0.461s-0.461,0.693-0.461,1.113s0.163,0.814,0.461,1.112C10.396,76.7,11.433,76.7,12.028,76.104z"/>
    <path d="M21.598,82.141c-0.038,0-0.11,0.009-0.173,0.071c-0.064,0.064-0.073,0.137-0.073,0.175s0.009,0.11,0.071,0.173c0.129,0.129,0.223,0.127,0.348,0.002c0.064-0.064,0.073-0.137,0.073-0.175s-0.009-0.11-0.071-0.173C21.708,82.15,21.636,82.141,21.598,82.141z"/>
    <path d="M10.326,83.944c-0.774,0-1.503,0.303-2.052,0.851c-0.548,0.549-0.851,1.277-0.851,2.053c0,0.774,0.303,1.503,0.851,2.052c1.097,1.098,3.01,1.097,4.103,0.001c0.55-0.549,0.852-1.277,0.852-2.053s-0.303-1.504-0.851-2.053C11.829,84.247,11.101,83.944,10.326,83.944z"/>
  </g>
</svg>
